<svg width="1098" height="808" viewBox="0 0 1098 808" fill="none" xmlns="http://www.w3.org/2000/svg">
<g clip-path="url(#clip0)">
<path opacity="0.1" d="M11.85 429.95C29.21 504.15 65.96 568.29 124.04 599.38C244.74 663.99 516.95 630.67 720.11 592.38C822.767 573.098 915.948 519.829 984.65 441.15L11.85 429.95Z" fill="#6C63FF"/>
<path opacity="0.1" d="M1077.2 80.71H965.73C963.175 80.71 960.724 79.6949 958.917 77.888C957.11 76.081 956.095 73.6304 956.095 71.075C956.095 68.5196 957.11 66.0689 958.917 64.262C960.724 62.4551 963.175 61.44 965.73 61.44H985C982.445 61.44 979.994 60.4249 978.187 58.618C976.38 56.8111 975.365 54.3604 975.365 51.805C975.365 49.2496 976.38 46.7989 978.187 44.992C979.994 43.1851 982.445 42.17 985 42.17H971.24C968.685 42.17 966.234 41.1549 964.427 39.348C962.62 37.541 961.605 35.0903 961.605 32.535C961.605 29.9796 962.62 27.5289 964.427 25.722C966.234 23.9151 968.685 22.9 971.24 22.9H1029.42C1016.51 16.9 1001.42 12.63 984.04 10.39C825.4 -9.99001 768.76 3.48999 748.78 17.39C724.13 34.49 696.63 47.07 667.24 53.13C569.36 73.32 386.31 97.62 220.4 45.35C137.94 19.35 76.65 63.27 39.92 136.63H1096.55C1095.17 115.31 1091.04 95.63 1083.46 78.39C1081.72 79.8889 1079.5 80.7123 1077.2 80.71Z" fill="#6C63FF"/>
<path opacity="0.1" d="M2.39002 275.1C-1.89188 318.251 -0.439251 361.78 6.71002 404.55L985.39 440.34C1012.63 409.001 1035.51 374.117 1053.39 336.64L2.39002 275.1ZM389.47 367.45H370.2C372.755 367.45 375.206 368.465 377.013 370.272C378.82 372.079 379.835 374.53 379.835 377.085C379.835 379.64 378.82 382.091 377.013 383.898C375.206 385.705 372.755 386.72 370.2 386.72H258.73C256.175 386.72 253.724 385.705 251.917 383.898C250.11 382.091 249.095 379.64 249.095 377.085C249.095 374.53 250.11 372.079 251.917 370.272C253.724 368.465 256.175 367.45 258.73 367.45H278C275.445 367.45 272.994 366.435 271.187 364.628C269.38 362.821 268.365 360.37 268.365 357.815C268.365 355.26 269.38 352.809 271.187 351.002C272.994 349.195 275.445 348.18 278 348.18H264.24C261.685 348.18 259.234 347.165 257.427 345.358C255.62 343.551 254.605 341.1 254.605 338.545C254.605 335.99 255.62 333.539 257.427 331.732C259.234 329.925 261.685 328.91 264.24 328.91H375.71C378.265 328.91 380.716 329.925 382.523 331.732C384.33 333.539 385.345 335.99 385.345 338.545C385.345 341.1 384.33 343.551 382.523 345.358C380.716 347.165 378.265 348.18 375.71 348.18H389.47C392.025 348.18 394.476 349.195 396.283 351.002C398.09 352.809 399.105 355.26 399.105 357.815C399.105 360.37 398.09 362.821 396.283 364.628C394.476 366.435 392.025 367.45 389.47 367.45V367.45Z" fill="#6C63FF"/>
<path opacity="0.1" d="M1096.6 137.29L28.11 163.29C15.12 196.69 6.55005 234.46 2.55005 273.62H1077.88C1084.9 250.622 1090.09 227.106 1093.41 203.29C1096.61 180.27 1097.89 158.02 1096.6 137.29ZM219.47 222.45H200.2C202.755 222.45 205.206 223.465 207.013 225.272C208.82 227.079 209.835 229.53 209.835 232.085C209.835 234.64 208.82 237.091 207.013 238.898C205.206 240.705 202.755 241.72 200.2 241.72H88.73C86.1747 241.72 83.724 240.705 81.9171 238.898C80.1102 237.091 79.095 234.64 79.095 232.085C79.095 229.53 80.1102 227.079 81.9171 225.272C83.724 223.465 86.1747 222.45 88.73 222.45H108C105.445 222.45 102.994 221.435 101.187 219.628C99.3802 217.821 98.3651 215.37 98.3651 212.815C98.3651 210.26 99.3802 207.809 101.187 206.002C102.994 204.195 105.445 203.18 108 203.18H94.2401C91.6847 203.18 89.234 202.165 87.4271 200.358C85.6202 198.551 84.605 196.1 84.605 193.545C84.605 190.99 85.6202 188.539 87.4271 186.732C89.234 184.925 91.6847 183.91 94.2401 183.91H205.71C208.265 183.91 210.716 184.925 212.523 186.732C214.33 188.539 215.345 190.99 215.345 193.545C215.345 196.1 214.33 198.551 212.523 200.358C210.716 202.165 208.265 203.18 205.71 203.18H219.47C222.025 203.18 224.476 204.195 226.283 206.002C228.09 207.809 229.105 210.26 229.105 212.815C229.105 215.37 228.09 217.821 226.283 219.628C224.476 221.435 222.025 222.45 219.47 222.45V222.45Z" fill="#6C63FF"/>
<g opacity="0.1">
<path opacity="0.1" d="M677.55 623.28C677.55 623.28 705.75 553.78 758.41 528C780.576 517.341 798.686 499.778 810.02 477.95C815.314 467.535 819.642 456.656 822.95 445.45" stroke="#535461" stroke-width="2" stroke-miterlimit="10"/>
<path opacity="0.1" d="M856.04 429C850.55 435.9 822.14 446 822.14 446C822.14 446 825.56 416 831.05 409.15C833.776 406.121 837.554 404.245 841.615 403.907C845.676 403.568 849.713 404.792 852.903 407.328C856.093 409.865 858.194 413.522 858.779 417.555C859.364 421.588 858.388 425.692 856.05 429.03L856.04 429Z" fill="#6C63FF"/>
<path opacity="0.1" d="M846.29 483.66C837.93 486.47 808.61 479.48 808.61 479.48C808.61 479.48 827.76 456.2 836.12 453.39C840.048 452.348 844.226 452.84 847.805 454.766C851.383 456.692 854.095 459.907 855.389 463.759C856.684 467.612 856.463 471.812 854.774 475.508C853.084 479.204 850.051 482.119 846.29 483.66V483.66Z" fill="#6C63FF"/>
<path opacity="0.1" d="M793.43 548.26C784.8 546.47 763.01 525.63 763.01 525.63C763.01 525.63 791.29 515.2 799.93 516.99C803.84 518.08 807.189 520.614 809.3 524.081C811.411 527.547 812.126 531.686 811.299 535.66C810.473 539.633 808.168 543.145 804.85 545.482C801.532 547.82 797.45 548.809 793.43 548.25V548.26Z" fill="#6C63FF"/>
<path opacity="0.1" d="M742.43 588.14C733.62 587.83 708.62 570.98 708.62 570.98C708.62 570.98 734.74 555.95 743.55 556.23C745.74 556.162 747.92 556.543 749.955 557.352C751.991 558.16 753.839 559.378 755.385 560.93C756.931 562.482 758.142 564.335 758.943 566.374C759.743 568.413 760.117 570.594 760.04 572.783C759.963 574.973 759.438 577.123 758.496 579.1C757.554 581.078 756.217 582.841 754.566 584.281C752.915 585.721 750.986 586.806 748.898 587.47C746.811 588.134 744.609 588.362 742.43 588.14V588.14Z" fill="#6C63FF"/>
<path opacity="0.1" d="M781.31 459.95C782.44 468.7 801.53 492.02 801.53 492.02C801.53 492.02 814.1 464.62 812.98 455.87C812.199 451.883 809.931 448.343 806.635 445.967C803.339 443.591 799.264 442.558 795.234 443.077C791.205 443.596 787.524 445.629 784.938 448.762C782.352 451.896 781.055 455.895 781.31 459.95Z" fill="#6C63FF"/>
<path opacity="0.1" d="M722.25 507.34C725.94 515.34 751.14 531.89 751.14 531.89C751.14 531.89 754.94 501.98 751.25 493.98C750.464 491.938 749.267 490.079 747.734 488.519C746.201 486.958 744.364 485.728 742.337 484.905C740.31 484.082 738.135 483.683 735.948 483.734C733.761 483.785 731.607 484.284 729.62 485.2C727.633 486.116 725.855 487.429 724.396 489.06C722.937 490.69 721.828 492.602 721.137 494.678C720.446 496.754 720.189 498.95 720.38 501.13C720.572 503.309 721.208 505.426 722.25 507.35V507.34Z" fill="#6C63FF"/>
<path opacity="0.1" d="M671.17 561.28C673.45 569.8 695.5 590.36 695.5 590.36C695.5 590.36 704.3 561.53 702.01 553.01C700.701 549.167 697.98 545.965 694.398 544.054C690.816 542.143 686.642 541.664 682.721 542.716C678.799 543.767 675.424 546.27 673.28 549.717C671.135 553.164 670.381 557.298 671.17 561.28Z" fill="#6C63FF"/>
<path opacity="0.25" d="M856.04 429C850.55 435.9 822.14 446 822.14 446C822.14 446 825.56 416 831.05 409.15C833.776 406.121 837.554 404.245 841.615 403.907C845.676 403.568 849.713 404.792 852.903 407.328C856.093 409.865 858.194 413.522 858.779 417.555C859.364 421.588 858.388 425.692 856.05 429.03L856.04 429Z" fill="black"/>
<path opacity="0.25" d="M846.29 483.66C837.93 486.47 808.61 479.48 808.61 479.48C808.61 479.48 827.76 456.2 836.12 453.39C840.048 452.348 844.226 452.84 847.805 454.766C851.383 456.692 854.095 459.907 855.389 463.759C856.684 467.612 856.463 471.812 854.774 475.508C853.084 479.204 850.051 482.119 846.29 483.66V483.66Z" fill="black"/>
<path opacity="0.25" d="M793.43 548.26C784.8 546.47 763.01 525.63 763.01 525.63C763.01 525.63 791.29 515.2 799.93 516.99C803.84 518.08 807.189 520.614 809.3 524.081C811.411 527.547 812.126 531.686 811.299 535.66C810.473 539.633 808.168 543.145 804.85 545.482C801.532 547.82 797.45 548.809 793.43 548.25V548.26Z" fill="black"/>
<path opacity="0.25" d="M742.43 588.14C733.62 587.83 708.62 570.98 708.62 570.98C708.62 570.98 734.74 555.95 743.55 556.23C745.74 556.162 747.92 556.543 749.955 557.352C751.991 558.16 753.839 559.378 755.385 560.93C756.931 562.482 758.142 564.335 758.943 566.374C759.743 568.413 760.117 570.594 760.04 572.783C759.963 574.973 759.438 577.123 758.496 579.1C757.554 581.078 756.217 582.841 754.566 584.281C752.915 585.721 750.986 586.806 748.898 587.47C746.811 588.134 744.609 588.362 742.43 588.14V588.14Z" fill="black"/>
<path opacity="0.25" d="M781.31 459.95C782.44 468.7 801.53 492.02 801.53 492.02C801.53 492.02 814.1 464.62 812.98 455.87C812.199 451.883 809.931 448.343 806.635 445.967C803.339 443.591 799.264 442.558 795.234 443.077C791.205 443.596 787.524 445.629 784.938 448.762C782.352 451.896 781.055 455.895 781.31 459.95Z" fill="black"/>
<path opacity="0.25" d="M722.25 507.34C725.94 515.34 751.14 531.89 751.14 531.89C751.14 531.89 754.94 501.98 751.25 493.98C750.464 491.938 749.267 490.079 747.734 488.519C746.201 486.958 744.364 485.728 742.337 484.905C740.31 484.082 738.135 483.683 735.948 483.734C733.761 483.785 731.607 484.284 729.62 485.2C727.633 486.116 725.855 487.429 724.396 489.06C722.937 490.69 721.828 492.602 721.137 494.678C720.446 496.754 720.189 498.95 720.38 501.13C720.572 503.309 721.208 505.426 722.25 507.35V507.34Z" fill="black"/>
<path opacity="0.25" d="M671.17 561.28C673.45 569.8 695.5 590.36 695.5 590.36C695.5 590.36 704.3 561.53 702.01 553.01C700.701 549.167 697.98 545.965 694.398 544.054C690.816 542.143 686.642 541.664 682.721 542.716C678.799 543.767 675.424 546.27 673.28 549.717C671.135 553.164 670.381 557.298 671.17 561.28Z" fill="black"/>
</g>
<g opacity="0.1">
<path opacity="0.1" d="M657.55 521.66C657.55 521.66 661.11 446.74 702.24 404.95C719.586 387.526 730.815 364.947 734.24 340.6C735.782 329.028 736.261 317.339 735.67 305.68" stroke="#535461" stroke-width="2" stroke-miterlimit="10"/>
<path opacity="0.1" d="M761.55 279.19C758.66 287.52 735.2 306.45 735.2 306.45C735.2 306.45 728.5 277.06 731.39 268.73C731.963 266.611 732.966 264.633 734.336 262.918C735.707 261.204 737.415 259.789 739.356 258.763C741.296 257.737 743.427 257.121 745.616 256.954C747.804 256.787 750.004 257.072 752.078 257.791C754.151 258.51 756.055 259.648 757.67 261.135C759.285 262.621 760.577 264.424 761.466 266.431C762.354 268.438 762.82 270.607 762.835 272.802C762.849 274.997 762.412 277.171 761.55 279.19V279.19Z" fill="#6C63FF"/>
<path opacity="0.1" d="M770.43 333.95C763.43 339.37 733.49 342.51 733.49 342.51C733.49 342.51 743.84 314.19 750.79 308.77C752.425 307.316 754.341 306.213 756.419 305.529C758.497 304.845 760.693 304.594 762.872 304.793C765.051 304.991 767.166 305.634 769.087 306.682C771.007 307.731 772.692 309.161 774.038 310.887C775.383 312.612 776.361 314.594 776.91 316.712C777.459 318.83 777.567 321.038 777.229 323.2C776.891 325.361 776.113 327.431 774.944 329.28C773.774 331.129 772.238 332.718 770.43 333.95V333.95Z" fill="#6C63FF"/>
<path opacity="0.1" d="M741.98 412.47C733.24 413.64 705.78 401.21 705.78 401.21C705.78 401.21 729.01 381.99 737.78 380.82C739.926 380.389 742.137 380.404 744.277 380.862C746.417 381.32 748.44 382.212 750.222 383.483C752.003 384.755 753.505 386.378 754.634 388.253C755.763 390.127 756.495 392.214 756.786 394.383C757.076 396.552 756.919 398.758 756.323 400.863C755.727 402.969 754.706 404.93 753.322 406.626C751.938 408.321 750.221 409.714 748.277 410.72C746.333 411.725 744.203 412.321 742.02 412.47H741.98Z" fill="#6C63FF"/>
<path opacity="0.1" d="M707.09 467C698.67 469.63 669.5 462 669.5 462C669.5 462 689.14 439.13 697.56 436.5C701.511 435.536 705.681 436.113 709.223 438.113C712.764 440.113 715.41 443.387 716.624 447.269C717.838 451.151 717.528 455.349 715.757 459.011C713.986 462.672 710.887 465.522 707.09 466.98V467Z" fill="#6C63FF"/>
<path opacity="0.1" d="M701.26 333.17C705.26 341.05 730.98 356.72 730.98 356.72C730.98 356.72 733.75 326.72 729.79 318.82C727.735 315.309 724.421 312.713 720.52 311.559C716.619 310.405 712.425 310.78 708.791 312.608C705.157 314.435 702.356 317.579 700.957 321.399C699.558 325.218 699.666 329.427 701.26 333.17V333.17Z" fill="#6C63FF"/>
<path opacity="0.1" d="M661.26 397.47C667.4 403.8 696.66 411.05 696.66 411.05C696.66 411.05 690.33 381.58 684.19 375.25C681.179 372.512 677.239 371.024 673.17 371.089C669.101 371.154 665.209 372.766 662.288 375.599C659.366 378.432 657.633 382.271 657.442 386.336C657.251 390.401 658.616 394.386 661.26 397.48V397.47Z" fill="#6C63FF"/>
<path opacity="0.1" d="M630.96 465.29C635.96 472.57 663.56 484.66 663.56 484.66C663.56 484.66 662.3 454.54 657.32 447.26C654.801 444.105 651.182 442.019 647.189 441.421C643.197 440.822 639.126 441.755 635.792 444.032C632.458 446.309 630.109 449.763 629.214 453.7C628.32 457.637 628.947 461.766 630.97 465.26L630.96 465.29Z" fill="#6C63FF"/>
</g>
<path opacity="0.1" d="M299.74 775.76C339.06 788.98 387.03 780.94 431.64 781.87C437.75 782 444.21 782.38 449.11 784.66C454.01 786.94 456.42 790.66 459.78 793.81C472.28 805.6 497.89 809.39 520.28 807.39C542.67 805.39 563.2 798.77 584.28 793.73C620.8 785.01 662.55 781.05 698.57 790.55C701.88 791.42 705.36 792.42 708.9 792.08C716.8 791.3 719.15 784.98 724.67 781.37C734.67 774.85 756.3 776.62 760.67 768.03C763.24 763.03 757.33 757.83 750.9 754.39C726.28 741.23 691.06 739.06 658.84 741.09C626.62 743.12 594.94 748.72 562.55 748.74C522.2 748.74 483.21 740.15 443.25 736.63C415.57 734.19 385.36 734.49 359.41 741.63C331.36 749.45 325.16 766.89 299.74 775.76Z" fill="#6C63FF"/>
<path d="M500 589H493V688H500V589Z" fill="#535461"/>
<path d="M500 722H493V778H500V722Z" fill="#535461"/>
<path d="M765.9 492H545.1C519.087 492 498 513.087 498 539.1V1128.9C498 1154.91 519.087 1176 545.1 1176H765.9C791.913 1176 813 1154.91 813 1128.9V539.1C813 513.087 791.913 492 765.9 492Z" fill="#535461"/>
<path d="M765.9 524H545.1C519.087 524 498 545.087 498 571.1V1099.9C498 1125.91 519.087 1147 545.1 1147H765.9C791.913 1147 813 1125.91 813 1099.9V571.1C813 545.087 791.913 524 765.9 524Z" fill="url(#paint0_linear)"/>
<path d="M678.5 507H633.5C631.567 507 630 508.567 630 510.5C630 512.433 631.567 514 633.5 514H678.5C680.433 514 682 512.433 682 510.5C682 508.567 680.433 507 678.5 507Z" fill="#EAEAF3"/>
<path d="M700 516C702.761 516 705 513.761 705 511C705 508.239 702.761 506 700 506C697.239 506 695 508.239 695 511C695 513.761 697.239 516 700 516Z" fill="#EAEAF3"/>
<path d="M573.8 800.2V873.2C573.825 875.489 573.395 877.76 572.535 879.881C571.674 882.002 570.401 883.931 568.788 885.556C567.176 887.181 565.256 888.469 563.142 889.345C561.027 890.221 558.759 890.668 556.47 890.66C546.83 890.66 537.47 882.85 537.47 873.2V800.2C537.47 790.68 546.8 782.87 556.47 782.87C561.06 782.888 565.458 784.72 568.704 787.966C571.95 791.212 573.782 795.609 573.8 800.2V800.2ZM580.61 899.14C580.605 901.591 581.084 904.018 582.019 906.283C582.954 908.548 584.328 910.606 586.061 912.339C587.794 914.072 589.852 915.446 592.117 916.381C594.382 917.317 596.809 917.795 599.26 917.79H611.8L611.99 956.3C611.99 979.55 646.78 979.37 646.78 956.3V917.8H670.22V956.31C670.22 979.44 705.22 979.5 705.22 956.31V917.8H717.95C720.391 917.792 722.807 917.304 725.06 916.362C727.312 915.421 729.357 914.045 731.078 912.313C732.798 910.581 734.161 908.527 735.088 906.269C736.015 904.01 736.488 901.591 736.48 899.15V786.05H580.61V899.14ZM736.9 779.97H579.9C579.9 752.97 596.03 729.55 619.98 717.33L607.98 695.08C606.22 691.99 610.69 690.08 612.2 692.69L624.43 715.13C635.191 710.422 646.809 707.992 658.555 707.992C670.301 707.992 681.919 710.422 692.68 715.13L704.84 692.76C706.42 690.05 710.84 692.07 709.06 695.15L697.06 717.33C720.77 729.55 736.9 753 736.9 779.97ZM629.32 744.97C629.32 743.214 628.623 741.53 627.381 740.289C626.14 739.047 624.456 738.35 622.7 738.35C620.99 738.417 619.372 739.143 618.186 740.376C617 741.609 616.337 743.254 616.337 744.965C616.337 746.676 617 748.321 618.186 749.554C619.372 750.787 620.99 751.514 622.7 751.58C624.45 751.58 626.13 750.887 627.37 749.652C628.611 748.417 629.312 746.741 629.32 744.99V744.97ZM700.79 744.97C700.77 743.681 700.369 742.427 699.636 741.366C698.904 740.305 697.873 739.486 696.675 739.01C695.477 738.535 694.165 738.425 692.904 738.695C691.644 738.966 690.492 739.603 689.594 740.528C688.696 741.453 688.092 742.623 687.858 743.89C687.625 745.158 687.773 746.467 688.283 747.651C688.793 748.834 689.643 749.84 690.724 750.542C691.806 751.243 693.071 751.608 694.36 751.59C696.082 751.551 697.721 750.837 698.923 749.603C700.125 748.369 700.796 746.713 700.79 744.99V744.97ZM760.53 782.85C758.252 782.843 755.996 783.287 753.89 784.156C751.785 785.024 749.872 786.301 748.261 787.911C746.651 789.522 745.374 791.435 744.506 793.54C743.637 795.646 743.193 797.902 743.2 800.18V873.18C743.191 875.465 743.632 877.729 744.498 879.843C745.364 881.957 746.638 883.879 748.247 885.501C749.857 887.122 751.77 888.411 753.877 889.292C755.985 890.174 758.245 890.632 760.53 890.64C770.24 890.64 779.53 882.83 779.53 873.18V800.18C779.5 790.5 770.17 782.87 760.53 782.87V782.85Z" fill="white"/>
<path d="M499 -40H492V16H499V-40Z" fill="#535461"/>
<path d="M764.9 -270H544.1C518.087 -270 497 -248.913 497 -222.9V366.9C497 392.913 518.087 414 544.1 414H764.9C790.913 414 812 392.913 812 366.9V-222.9C812 -248.913 790.913 -270 764.9 -270Z" fill="#535461"/>
<path d="M764.9 -238H544.1C518.087 -238 497 -216.913 497 -190.9V337.9C497 363.913 518.087 385 544.1 385H764.9C790.913 385 812 363.913 812 337.9V-190.9C812 -216.913 790.913 -238 764.9 -238Z" fill="url(#paint1_linear)"/>
<path d="M572.8 38.2V111.2C572.825 113.489 572.395 115.76 571.535 117.881C570.674 120.002 569.401 121.931 567.788 123.556C566.176 125.181 564.256 126.469 562.142 127.345C560.027 128.221 557.759 128.668 555.47 128.66C545.83 128.66 536.47 120.85 536.47 111.2V38.2C536.47 28.68 545.8 20.87 555.47 20.87C560.06 20.8885 564.458 22.7202 567.704 25.9662C570.95 29.2122 572.782 33.6095 572.8 38.2V38.2ZM579.61 137.14C579.605 139.591 580.084 142.018 581.019 144.283C581.954 146.548 583.328 148.606 585.061 150.339C586.794 152.072 588.852 153.446 591.117 154.381C593.382 155.317 595.809 155.795 598.26 155.79H610.8L610.99 194.3C610.99 217.55 645.78 217.37 645.78 194.3V155.8H669.22V194.31C669.22 217.44 704.22 217.5 704.22 194.31V155.8H716.95C719.391 155.792 721.807 155.304 724.06 154.362C726.312 153.421 728.357 152.045 730.078 150.313C731.798 148.581 733.161 146.527 734.088 144.269C735.015 142.01 735.488 139.591 735.48 137.15V24.05H579.61V137.14ZM735.9 17.97H578.9C578.9 -9.02996 595.03 -32.45 618.98 -44.67L606.98 -66.92C605.22 -70.01 609.69 -71.92 611.2 -69.31L623.43 -46.87C634.191 -51.5777 645.809 -54.008 657.555 -54.008C669.301 -54.008 680.919 -51.5777 691.68 -46.87L703.84 -69.24C705.42 -71.95 709.84 -69.93 708.06 -66.85L696.06 -44.67C719.77 -32.45 735.9 -8.99996 735.9 17.97ZM628.32 -17.03C628.32 -18.7857 627.623 -20.4695 626.381 -21.711C625.14 -22.9525 623.456 -23.65 621.7 -23.65C619.99 -23.5835 618.372 -22.8575 617.186 -21.6242C616 -20.3909 615.337 -18.7462 615.337 -17.035C615.337 -15.3238 616 -13.6791 617.186 -12.4458C618.372 -11.2125 619.99 -10.4865 621.7 -10.42C623.45 -10.42 625.13 -11.1133 626.37 -12.3483C627.611 -13.5833 628.312 -15.2594 628.32 -17.01V-17.03ZM699.79 -17.03C699.77 -18.3189 699.369 -19.5729 698.636 -20.6337C697.904 -21.6945 696.873 -22.5144 695.675 -22.9898C694.477 -23.4652 693.165 -23.5747 691.904 -23.3046C690.644 -23.0345 689.492 -22.3968 688.594 -21.4721C687.696 -20.5474 687.092 -19.3773 686.858 -18.1095C686.625 -16.8418 686.773 -15.5333 687.283 -14.3495C687.793 -13.1656 688.643 -12.1595 689.724 -11.4583C690.806 -10.7572 692.071 -10.3923 693.36 -10.41C695.082 -10.4492 696.721 -11.1625 697.923 -12.3966C699.125 -13.6307 699.796 -15.2871 699.79 -17.01V-17.03ZM759.53 20.85C757.252 20.8434 754.996 21.2872 752.89 22.1557C750.785 23.0243 748.872 24.3006 747.261 25.9111C745.651 27.5217 744.374 29.4348 743.506 31.5403C742.637 33.6459 742.193 35.9024 742.2 38.18V111.18C742.191 113.465 742.632 115.729 743.498 117.843C744.364 119.957 745.638 121.879 747.247 123.501C748.857 125.122 750.77 126.411 752.877 127.292C754.985 128.174 757.245 128.632 759.53 128.64C769.24 128.64 778.53 120.83 778.53 111.18V38.18C778.5 28.5 769.17 20.87 759.53 20.87V20.85Z" fill="white"/>
<path d="M645.5 211.56H580.5V214.56H645.5V211.56Z" fill="#535461"/>
<path d="M712.5 211.56H669.5V214.56H712.5V211.56Z" fill="#535461"/>
<path d="M566.5 211.56H523.5V214.56H566.5V211.56Z" fill="#535461"/>
<path d="M780.5 211.56H737.5V214.56H780.5V211.56Z" fill="#535461"/>
<path d="M98 191H91V290H98V191Z" fill="#535461"/>
<path d="M98 324H91V380H98V324Z" fill="#535461"/>
<path d="M363.9 94H143.1C117.087 94 96 115.087 96 141.1V730.9C96 756.913 117.087 778 143.1 778H363.9C389.913 778 411 756.913 411 730.9V141.1C411 115.087 389.913 94 363.9 94Z" fill="#535461"/>
<path d="M363.9 126H143.1C117.087 126 96 147.087 96 173.1V701.9C96 727.913 117.087 749 143.1 749H363.9C389.913 749 411 727.913 411 701.9V173.1C411 147.087 389.913 126 363.9 126Z" fill="url(#paint2_linear)"/>
<path d="M276.5 109H231.5C229.567 109 228 110.567 228 112.5C228 114.433 229.567 116 231.5 116H276.5C278.433 116 280 114.433 280 112.5C280 110.567 278.433 109 276.5 109Z" fill="#EAEAF3"/>
<path d="M298 118C300.761 118 303 115.761 303 113C303 110.239 300.761 108 298 108C295.239 108 293 110.239 293 113C293 115.761 295.239 118 298 118Z" fill="#EAEAF3"/>
<path d="M171.8 402.2V475.2C171.825 477.489 171.395 479.76 170.535 481.881C169.674 484.002 168.401 485.931 166.788 487.556C165.176 489.181 163.256 490.469 161.142 491.345C159.027 492.221 156.759 492.668 154.47 492.66C144.83 492.66 135.47 484.85 135.47 475.2V402.2C135.47 392.68 144.8 384.87 154.47 384.87C159.06 384.888 163.458 386.72 166.704 389.966C169.95 393.212 171.782 397.609 171.8 402.2V402.2ZM178.61 501.14C178.605 503.591 179.084 506.018 180.019 508.283C180.954 510.548 182.328 512.606 184.061 514.339C185.794 516.072 187.852 517.446 190.117 518.381C192.382 519.317 194.809 519.795 197.26 519.79H209.8L209.99 558.3C209.99 581.55 244.78 581.37 244.78 558.3V519.8H268.22V558.31C268.22 581.44 303.22 581.5 303.22 558.31V519.8H315.95C318.391 519.792 320.807 519.304 323.06 518.362C325.312 517.421 327.357 516.045 329.078 514.313C330.798 512.581 332.161 510.527 333.088 508.269C334.015 506.01 334.488 503.591 334.48 501.15V388.05H178.61V501.14ZM334.9 381.97H177.9C177.9 354.97 194.03 331.55 217.98 319.33L205.98 297.08C204.22 293.99 208.69 292.08 210.2 294.69L222.43 317.13C233.191 312.422 244.809 309.992 256.555 309.992C268.301 309.992 279.919 312.422 290.68 317.13L302.84 294.76C304.42 292.05 308.84 294.07 307.06 297.15L295.06 319.33C318.77 331.55 334.9 355 334.9 381.97ZM227.32 346.97C227.32 345.214 226.623 343.53 225.381 342.289C224.14 341.047 222.456 340.35 220.7 340.35C218.99 340.417 217.372 341.143 216.186 342.376C215 343.609 214.337 345.254 214.337 346.965C214.337 348.676 215 350.321 216.186 351.554C217.372 352.787 218.99 353.514 220.7 353.58C222.45 353.58 224.13 352.887 225.37 351.652C226.611 350.417 227.312 348.741 227.32 346.99V346.97ZM298.79 346.97C298.77 345.681 298.369 344.427 297.636 343.366C296.904 342.305 295.873 341.486 294.675 341.01C293.477 340.535 292.165 340.425 290.904 340.695C289.644 340.966 288.492 341.603 287.594 342.528C286.696 343.453 286.092 344.623 285.858 345.89C285.625 347.158 285.773 348.467 286.283 349.651C286.793 350.834 287.643 351.84 288.724 352.542C289.806 353.243 291.071 353.608 292.36 353.59C294.082 353.551 295.721 352.837 296.923 351.603C298.125 350.369 298.796 348.713 298.79 346.99V346.97ZM358.53 384.85C356.252 384.843 353.996 385.287 351.89 386.156C349.785 387.024 347.872 388.301 346.261 389.911C344.651 391.522 343.374 393.435 342.506 395.54C341.637 397.646 341.193 399.902 341.2 402.18V475.18C341.191 477.465 341.632 479.729 342.498 481.843C343.364 483.957 344.638 485.879 346.247 487.501C347.857 489.122 349.77 490.411 351.877 491.292C353.985 492.174 356.245 492.632 358.53 492.64C368.24 492.64 377.53 484.83 377.53 475.18V402.18C377.5 392.5 368.17 384.87 358.53 384.87V384.85Z" fill="white"/>
<path d="M244.5 575.56H179.5V578.56H244.5V575.56Z" fill="#535461"/>
<path d="M311.5 575.56H268.5V578.56H311.5V575.56Z" fill="#535461"/>
<path d="M165.5 575.56H122.5V578.56H165.5V575.56Z" fill="#535461"/>
<path d="M379.5 575.56H336.5V578.56H379.5V575.56Z" fill="#535461"/>
<path d="M900 185H893V284H900V185Z" fill="#535461"/>
<path d="M900 318H893V374H900V318Z" fill="#535461"/>
<path d="M1165.9 88H945.1C919.087 88 898 109.087 898 135.1V724.9C898 750.913 919.087 772 945.1 772H1165.9C1191.91 772 1213 750.913 1213 724.9V135.1C1213 109.087 1191.91 88 1165.9 88Z" fill="#535461"/>
<path d="M1165.9 120H945.1C919.087 120 898 141.087 898 167.1V695.9C898 721.913 919.087 743 945.1 743H1165.9C1191.91 743 1213 721.913 1213 695.9V167.1C1213 141.087 1191.91 120 1165.9 120Z" fill="url(#paint3_linear)"/>
<path d="M1078.5 103H1033.5C1031.57 103 1030 104.567 1030 106.5C1030 108.433 1031.57 110 1033.5 110H1078.5C1080.43 110 1082 108.433 1082 106.5C1082 104.567 1080.43 103 1078.5 103Z" fill="#EAEAF3"/>
<path d="M1100 112C1102.76 112 1105 109.761 1105 107C1105 104.239 1102.76 102 1100 102C1097.24 102 1095 104.239 1095 107C1095 109.761 1097.24 112 1100 112Z" fill="#EAEAF3"/>
<path d="M973.8 396.2V469.2C973.825 471.489 973.395 473.76 972.535 475.881C971.674 478.002 970.401 479.931 968.788 481.556C967.176 483.181 965.256 484.469 963.142 485.345C961.027 486.221 958.759 486.668 956.47 486.66C946.83 486.66 937.47 478.85 937.47 469.2V396.2C937.47 386.68 946.8 378.87 956.47 378.87C961.06 378.888 965.458 380.72 968.704 383.966C971.95 387.212 973.782 391.609 973.8 396.2V396.2ZM980.61 495.14C980.605 497.591 981.084 500.018 982.019 502.283C982.954 504.548 984.328 506.606 986.061 508.339C987.794 510.072 989.852 511.446 992.117 512.381C994.382 513.317 996.809 513.795 999.26 513.79H1011.8L1011.99 552.3C1011.99 575.55 1046.78 575.37 1046.78 552.3V513.8H1070.22V552.31C1070.22 575.44 1105.22 575.5 1105.22 552.31V513.8H1117.95C1120.39 513.792 1122.81 513.304 1125.06 512.362C1127.31 511.421 1129.36 510.045 1131.08 508.313C1132.8 506.581 1134.16 504.527 1135.09 502.269C1136.01 500.01 1136.49 497.591 1136.48 495.15V382.05H980.61V495.14ZM1136.9 375.97H979.9C979.9 348.97 996.03 325.55 1019.98 313.33L1007.98 291.08C1006.22 287.99 1010.69 286.08 1012.2 288.69L1024.43 311.13C1035.19 306.422 1046.81 303.992 1058.55 303.992C1070.3 303.992 1081.92 306.422 1092.68 311.13L1104.84 288.76C1106.42 286.05 1110.84 288.07 1109.06 291.15L1097.06 313.33C1120.77 325.55 1136.9 349 1136.9 375.97ZM1029.32 340.97C1029.32 339.214 1028.62 337.53 1027.38 336.289C1026.14 335.047 1024.46 334.35 1022.7 334.35C1020.99 334.417 1019.37 335.143 1018.19 336.376C1017 337.609 1016.34 339.254 1016.34 340.965C1016.34 342.676 1017 344.321 1018.19 345.554C1019.37 346.787 1020.99 347.514 1022.7 347.58C1024.45 347.58 1026.13 346.887 1027.37 345.652C1028.61 344.417 1029.31 342.741 1029.32 340.99V340.97ZM1100.79 340.97C1100.77 339.681 1100.37 338.427 1099.64 337.366C1098.9 336.305 1097.87 335.486 1096.68 335.01C1095.48 334.535 1094.16 334.425 1092.9 334.695C1091.64 334.966 1090.49 335.603 1089.59 336.528C1088.7 337.453 1088.09 338.623 1087.86 339.89C1087.63 341.158 1087.77 342.467 1088.28 343.651C1088.79 344.834 1089.64 345.84 1090.72 346.542C1091.81 347.243 1093.07 347.608 1094.36 347.59C1096.08 347.551 1097.72 346.837 1098.92 345.603C1100.13 344.369 1100.8 342.713 1100.79 340.99V340.97ZM1160.53 378.85C1158.25 378.843 1156 379.287 1153.89 380.156C1151.78 381.024 1149.87 382.301 1148.26 383.911C1146.65 385.522 1145.37 387.435 1144.51 389.54C1143.64 391.646 1143.19 393.902 1143.2 396.18V469.18C1143.19 471.465 1143.63 473.729 1144.5 475.843C1145.36 477.957 1146.64 479.879 1148.25 481.501C1149.86 483.122 1151.77 484.411 1153.88 485.292C1155.98 486.174 1158.25 486.632 1160.53 486.64C1170.24 486.64 1179.53 478.83 1179.53 469.18V396.18C1179.5 386.5 1170.17 378.87 1160.53 378.87V378.85Z" fill="white"/>
<path d="M1046.5 569.56H981.5V572.56H1046.5V569.56Z" fill="#535461"/>
<path d="M1113.5 569.56H1070.5V572.56H1113.5V569.56Z" fill="#535461"/>
<path d="M967.5 569.56H924.5V572.56H967.5V569.56Z" fill="#535461"/>
</g>
<defs>
<linearGradient id="paint0_linear" x1="655.49" y1="524.1" x2="655.49" y2="1198.6" gradientUnits="userSpaceOnUse">
<stop stop-color="#43E97B"/>
<stop offset="1" stop-color="#38F9D7" stop-opacity="0"/>
</linearGradient>
<linearGradient id="paint1_linear" x1="654.49" y1="-237.9" x2="654.49" y2="436.6" gradientUnits="userSpaceOnUse">
<stop stop-color="#43E97B"/>
<stop offset="1" stop-color="#38F9D7" stop-opacity="0"/>
</linearGradient>
<linearGradient id="paint2_linear" x1="253.49" y1="126.1" x2="253.49" y2="800.6" gradientUnits="userSpaceOnUse">
<stop stop-color="#43E97B"/>
<stop offset="1" stop-color="#38F9D7" stop-opacity="0"/>
</linearGradient>
<linearGradient id="paint3_linear" x1="1055.49" y1="120.1" x2="1055.49" y2="794.6" gradientUnits="userSpaceOnUse">
<stop stop-color="#43E97B"/>
<stop offset="1" stop-color="#38F9D7" stop-opacity="0"/>
</linearGradient>
<clipPath id="clip0">
<rect width="1097.1" height="807.9" fill="white"/>
</clipPath>
</defs>
</svg>
